<svg width="721" height="51" viewBox="0 0 721 51" fill="none" xmlns="http://www.w3.org/2000/svg">
<path d="M197.405 25.8964H204.445V18.6564H207.325V25.8964H214.365V28.7764H207.325V35.9764H204.445V28.7764H197.405V25.8964ZM220.4 40.8564L230.44 17.4164L232.2 15.4564L229.84 15.8164H218.44V12.8564H235.16V13.9364L223.64 40.8564H220.4ZM255.393 49.6564C254.166 48.3764 253.126 46.9631 252.273 45.4164C251.419 43.8964 250.726 42.3364 250.193 40.7364C249.686 39.1098 249.313 37.4831 249.073 35.8564C248.833 34.2031 248.713 32.6298 248.713 31.1364C248.713 29.6698 248.833 28.1231 249.073 26.4964C249.313 24.8698 249.699 23.2431 250.233 21.6164C250.766 19.9631 251.459 18.3498 252.313 16.7764C253.193 15.2031 254.259 13.7364 255.513 12.3764L257.433 13.7764C256.366 15.1364 255.473 16.5498 254.753 18.0164C254.059 19.4564 253.499 20.9231 253.073 22.4164C252.646 23.9098 252.339 25.4031 252.153 26.8964C251.993 28.3631 251.913 29.7764 251.913 31.1364C251.913 32.4164 252.006 33.8164 252.192 35.3364C252.406 36.8298 252.726 38.3364 253.153 39.8564C253.606 41.3498 254.179 42.8164 254.873 44.2564C255.593 45.6964 256.446 47.0031 257.433 48.1764L255.393 49.6564ZM260.243 34.1764C260.243 32.4964 260.683 31.0431 261.563 29.8164C262.443 28.5631 263.817 27.4298 265.683 26.4164C265.017 26.0164 264.39 25.6031 263.803 25.1764C263.243 24.7231 262.737 24.2164 262.283 23.6564C261.857 23.0964 261.51 22.4698 261.243 21.7764C261.003 21.0831 260.883 20.2831 260.883 19.3764C260.883 18.3364 261.057 17.3898 261.403 16.5364C261.777 15.6831 262.297 14.9498 262.963 14.3364C263.657 13.7231 264.47 13.2431 265.403 12.8964C266.363 12.5498 267.443 12.3764 268.643 12.3764C269.763 12.3764 270.777 12.5364 271.683 12.8564C272.59 13.1764 273.35 13.6164 273.963 14.1764C274.603 14.7364 275.097 15.4031 275.443 16.1764C275.79 16.9498 275.963 17.8031 275.963 18.7364C275.963 20.2564 275.617 21.6031 274.923 22.7764C274.23 23.9231 273.083 25.0564 271.483 26.1764C272.177 26.5764 272.83 27.0164 273.443 27.4964C274.083 27.9764 274.63 28.5098 275.083 29.0964C275.563 29.6831 275.937 30.3498 276.203 31.0964C276.47 31.8164 276.603 32.6431 276.603 33.5764C276.603 34.7231 276.417 35.7764 276.043 36.7364C275.67 37.6698 275.123 38.4831 274.403 39.1764C273.683 39.8431 272.803 40.3764 271.763 40.7764C270.723 41.1498 269.537 41.3364 268.203 41.3364C266.923 41.3364 265.79 41.1498 264.803 40.7764C263.817 40.4031 262.977 39.8964 262.283 39.2564C261.617 38.6164 261.11 37.8698 260.763 37.0164C260.417 36.1364 260.243 35.1898 260.243 34.1764ZM273.483 33.7764C273.483 32.9764 273.323 32.2831 273.003 31.6964C272.683 31.0831 272.257 30.5364 271.723 30.0564C271.217 29.5498 270.63 29.0964 269.963 28.6964C269.297 28.2964 268.603 27.9098 267.883 27.5364C266.257 28.4431 265.097 29.4564 264.403 30.5764C263.71 31.6964 263.363 32.7631 263.363 33.7764C263.363 34.4164 263.47 35.0298 263.683 35.6164C263.897 36.2031 264.217 36.7098 264.643 37.1364C265.07 37.5631 265.59 37.9098 266.203 38.1764C266.843 38.4164 267.577 38.5364 268.403 38.5364C269.07 38.5364 269.71 38.4431 270.323 38.2564C270.937 38.0431 271.47 37.7498 271.923 37.3764C272.403 36.9764 272.777 36.4831 273.043 35.8964C273.337 35.2831 273.483 34.5764 273.483 33.7764ZM264.003 19.2964C264.003 20.0431 264.15 20.7098 264.443 21.2964C264.737 21.8564 265.123 22.3631 265.603 22.8164C266.11 23.2698 266.683 23.6964 267.323 24.0964C267.963 24.4698 268.63 24.8298 269.323 25.1764C270.523 24.2431 271.403 23.3231 271.963 22.4164C272.55 21.5098 272.843 20.5098 272.843 19.4164C272.843 18.0564 272.417 17.0164 271.563 16.2964C270.737 15.5498 269.737 15.1764 268.563 15.1764C267.843 15.1764 267.203 15.2964 266.643 15.5364C266.083 15.7764 265.603 16.0831 265.203 16.4564C264.803 16.8298 264.497 17.2698 264.283 17.7764C264.097 18.2564 264.003 18.7631 264.003 19.2964ZM283.64 37.8964H289.24V18.5364L289.64 16.1764L288.04 18.0564L283.64 21.2164L282.12 19.1764L290.92 12.3764H292.36V37.8964H297.84V40.8564H283.64V37.8964ZM318.957 19.2164C318.957 20.6298 318.691 22.0831 318.157 23.5764C317.651 25.0431 316.971 26.5231 316.117 28.0164C315.291 29.5098 314.357 30.9764 313.317 32.4164C312.277 33.8298 311.237 35.1764 310.197 36.4564L308.237 38.1764V38.3364L310.797 37.8964H319.517V40.8564H303.597V39.6964C304.184 39.0831 304.891 38.3231 305.717 37.4164C306.544 36.5098 307.397 35.5098 308.277 34.4164C309.184 33.2964 310.064 32.1231 310.917 30.8964C311.797 29.6431 312.584 28.3764 313.277 27.0964C313.997 25.8164 314.571 24.5498 314.997 23.2964C315.424 22.0431 315.637 20.8564 315.637 19.7364C315.637 18.4298 315.264 17.3498 314.517 16.4964C313.771 15.6164 312.637 15.1764 311.117 15.1764C310.104 15.1764 309.117 15.3898 308.157 15.8164C307.197 16.2164 306.371 16.6831 305.677 17.2164L304.357 14.9364C305.291 14.1364 306.397 13.5098 307.677 13.0564C308.957 12.6031 310.331 12.3764 311.797 12.3764C312.944 12.3764 313.957 12.5498 314.837 12.8964C315.717 13.2164 316.464 13.6831 317.077 14.2964C317.691 14.9098 318.157 15.6431 318.477 16.4964C318.797 17.3231 318.957 18.2298 318.957 19.2164ZM325.034 12.3764C326.261 13.6564 327.301 15.0698 328.154 16.6164C329.007 18.1364 329.687 19.7098 330.194 21.3364C330.727 22.9364 331.114 24.5631 331.354 26.2164C331.594 27.8431 331.714 29.4031 331.714 30.8964C331.714 32.3631 331.594 33.9098 331.354 35.5364C331.114 37.1631 330.727 38.8031 330.194 40.4564C329.661 42.0831 328.954 43.6831 328.074 45.2564C327.221 46.8298 326.167 48.2964 324.914 49.6564L322.994 48.2564C324.061 46.8964 324.954 45.4831 325.674 44.0164C326.394 42.5498 326.954 41.0698 327.354 39.5764C327.781 38.0831 328.074 36.6031 328.234 35.1364C328.421 33.6698 328.514 32.2564 328.514 30.8964C328.514 29.6164 328.407 28.2298 328.194 26.7364C327.981 25.2431 327.647 23.7364 327.194 22.2164C326.767 20.6964 326.207 19.2164 325.514 17.7764C324.821 16.3364 323.981 15.0298 322.994 13.8564L325.034 12.3764ZM347.509 34.1764C347.509 32.4964 347.949 31.0431 348.829 29.8164C349.709 28.5631 351.082 27.4298 352.949 26.4164C352.282 26.0164 351.656 25.6031 351.069 25.1764C350.509 24.7231 350.002 24.2164 349.549 23.6564C349.122 23.0964 348.776 22.4698 348.509 21.7764C348.269 21.0831 348.149 20.2831 348.149 19.3764C348.149 18.3364 348.322 17.3898 348.669 16.5364C349.042 15.6831 349.562 14.9498 350.229 14.3364C350.922 13.7231 351.736 13.2431 352.669 12.8964C353.629 12.5498 354.709 12.3764 355.909 12.3764C357.029 12.3764 358.042 12.5364 358.949 12.8564C359.856 13.1764 360.616 13.6164 361.229 14.1764C361.869 14.7364 362.362 15.4031 362.709 16.1764C363.056 16.9498 363.229 17.8031 363.229 18.7364C363.229 20.2564 362.882 21.6031 362.189 22.7764C361.496 23.9231 360.349 25.0564 358.749 26.1764C359.442 26.5764 360.096 27.0164 360.709 27.4964C361.349 27.9764 361.896 28.5098 362.349 29.0964C362.829 29.6831 363.202 30.3498 363.469 31.0964C363.736 31.8164 363.869 32.6431 363.869 33.5764C363.869 34.7231 363.682 35.7764 363.309 36.7364C362.936 37.6698 362.389 38.4831 361.669 39.1764C360.949 39.8431 360.069 40.3764 359.029 40.7764C357.989 41.1498 356.802 41.3364 355.469 41.3364C354.189 41.3364 353.056 41.1498 352.069 40.7764C351.082 40.4031 350.242 39.8964 349.549 39.2564C348.882 38.6164 348.376 37.8698 348.029 37.0164C347.682 36.1364 347.509 35.1898 347.509 34.1764ZM360.749 33.7764C360.749 32.9764 360.589 32.2831 360.269 31.6964C359.949 31.0831 359.522 30.5364 358.989 30.0564C358.482 29.5498 357.896 29.0964 357.229 28.6964C356.562 28.2964 355.869 27.9098 355.149 27.5364C353.522 28.4431 352.362 29.4564 351.669 30.5764C350.976 31.6964 350.629 32.7631 350.629 33.7764C350.629 34.4164 350.736 35.0298 350.949 35.6164C351.162 36.2031 351.482 36.7098 351.909 37.1364C352.336 37.5631 352.856 37.9098 353.469 38.1764C354.109 38.4164 354.842 38.5364 355.669 38.5364C356.336 38.5364 356.976 38.4431 357.589 38.2564C358.202 38.0431 358.736 37.7498 359.189 37.3764C359.669 36.9764 360.042 36.4831 360.309 35.8964C360.602 35.2831 360.749 34.5764 360.749 33.7764ZM351.269 19.2964C351.269 20.0431 351.416 20.7098 351.709 21.2964C352.002 21.8564 352.389 22.3631 352.869 22.8164C353.376 23.2698 353.949 23.6964 354.589 24.0964C355.229 24.4698 355.896 24.8298 356.589 25.1764C357.789 24.2431 358.669 23.3231 359.229 22.4164C359.816 21.5098 360.109 20.5098 360.109 19.4164C360.109 18.0564 359.682 17.0164 358.829 16.2964C358.002 15.5498 357.002 15.1764 355.829 15.1764C355.109 15.1764 354.469 15.2964 353.909 15.5364C353.349 15.7764 352.869 16.0831 352.469 16.4564C352.069 16.8298 351.762 17.2698 351.549 17.7764C351.362 18.2564 351.269 18.7631 351.269 19.2964ZM370.906 37.8964H376.506V18.5364L376.906 16.1764L375.306 18.0564L370.906 21.2164L369.386 19.1764L378.186 12.3764H379.626V37.8964H385.106V40.8564H370.906V37.8964ZM406.223 19.2164C406.223 20.6298 405.956 22.0831 405.423 23.5764C404.916 25.0431 404.236 26.5231 403.383 28.0164C402.556 29.5098 401.623 30.9764 400.583 32.4164C399.543 33.8298 398.503 35.1764 397.463 36.4564L395.503 38.1764V38.3364L398.063 37.8964H406.783V40.8564H390.863V39.6964C391.449 39.0831 392.156 38.3231 392.983 37.4164C393.809 36.5098 394.663 35.5098 395.543 34.4164C396.449 33.2964 397.329 32.1231 398.183 30.8964C399.063 29.6431 399.849 28.3764 400.543 27.0964C401.263 25.8164 401.836 24.5498 402.263 23.2964C402.689 22.0431 402.903 20.8564 402.903 19.7364C402.903 18.4298 402.529 17.3498 401.783 16.4964C401.036 15.6164 399.903 15.1764 398.383 15.1764C397.369 15.1764 396.383 15.3898 395.423 15.8164C394.463 16.2164 393.636 16.6831 392.943 17.2164L391.623 14.9364C392.556 14.1364 393.663 13.5098 394.943 13.0564C396.223 12.6031 397.596 12.3764 399.063 12.3764C400.209 12.3764 401.223 12.5498 402.103 12.8964C402.983 13.2164 403.729 13.6831 404.343 14.2964C404.956 14.9098 405.423 15.6431 405.743 16.4964C406.063 17.3231 406.223 18.2298 406.223 19.2164ZM412.54 27.8564H422.22V30.8164H412.54V27.8564ZM428.914 37.8964H434.514V18.5364L434.914 16.1764L433.314 18.0564L428.914 21.2164L427.394 19.1764L436.194 12.3764H437.634V37.8964H443.114V40.8564H428.914V37.8964ZM464.231 19.2164C464.231 20.6298 463.964 22.0831 463.431 23.5764C462.924 25.0431 462.244 26.5231 461.391 28.0164C460.564 29.5098 459.631 30.9764 458.591 32.4164C457.551 33.8298 456.511 35.1764 455.471 36.4564L453.511 38.1764V38.3364L456.071 37.8964H464.791V40.8564H448.871V39.6964C449.457 39.0831 450.164 38.3231 450.991 37.4164C451.817 36.5098 452.671 35.5098 453.551 34.4164C454.457 33.2964 455.337 32.1231 456.191 30.8964C457.071 29.6431 457.857 28.3764 458.551 27.0964C459.271 25.8164 459.844 24.5498 460.271 23.2964C460.697 22.0431 460.911 20.8564 460.911 19.7364C460.911 18.4298 460.537 17.3498 459.791 16.4964C459.044 15.6164 457.911 15.1764 456.391 15.1764C455.377 15.1764 454.391 15.3898 453.431 15.8164C452.471 16.2164 451.644 16.6831 450.951 17.2164L449.631 14.9364C450.564 14.1364 451.671 13.5098 452.951 13.0564C454.231 12.6031 455.604 12.3764 457.071 12.3764C458.217 12.3764 459.231 12.5498 460.111 12.8964C460.991 13.2164 461.737 13.6831 462.351 14.2964C462.964 14.9098 463.431 15.6431 463.751 16.4964C464.071 17.3231 464.231 18.2298 464.231 19.2164ZM470.548 27.8564H480.228V30.8164H470.548V27.8564ZM486.922 37.8964H492.522V18.5364L492.922 16.1764L491.322 18.0564L486.922 21.2164L485.402 19.1764L494.202 12.3764H495.642V37.8964H501.122V40.8564H486.922V37.8964ZM522.238 19.2164C522.238 20.6298 521.972 22.0831 521.438 23.5764C520.932 25.0431 520.252 26.5231 519.398 28.0164C518.572 29.5098 517.638 30.9764 516.598 32.4164C515.558 33.8298 514.518 35.1764 513.478 36.4564L511.518 38.1764V38.3364L514.078 37.8964H522.798V40.8564H506.878V39.6964C507.465 39.0831 508.172 38.3231 508.998 37.4164C509.825 36.5098 510.678 35.5098 511.558 34.4164C512.465 33.2964 513.345 32.1231 514.198 30.8964C515.078 29.6431 515.865 28.3764 516.558 27.0964C517.278 25.8164 517.852 24.5498 518.278 23.2964C518.705 22.0431 518.918 20.8564 518.918 19.7364C518.918 18.4298 518.545 17.3498 517.798 16.4964C517.052 15.6164 515.918 15.1764 514.398 15.1764C513.385 15.1764 512.398 15.3898 511.438 15.8164C510.478 16.2164 509.652 16.6831 508.958 17.2164L507.638 14.9364C508.572 14.1364 509.678 13.5098 510.958 13.0564C512.238 12.6031 513.612 12.3764 515.078 12.3764C516.225 12.3764 517.238 12.5498 518.118 12.8964C518.998 13.2164 519.745 13.6831 520.358 14.2964C520.972 14.9098 521.438 15.6431 521.758 16.4964C522.078 17.3231 522.238 18.2298 522.238 19.2164Z" fill="black"/>
</svg>
