<svg width="140" height="37" viewBox="0 0 140 37" fill="none" xmlns="http://www.w3.org/2000/svg">
<rect width="140" height="37" rx="4" fill="#F2F2F2"/>
<path d="M24.4623 13.912C24.8676 13.816 25.305 13.752 25.7743 13.72C26.2436 13.688 26.7076 13.672 27.1663 13.672C27.657 13.672 28.153 13.72 28.6543 13.816C29.1663 13.912 29.6303 14.088 30.0463 14.344C30.4623 14.6 30.7983 14.952 31.0543 15.4C31.321 15.848 31.4543 16.4187 31.4543 17.112C31.4543 17.7947 31.3316 18.3707 31.0863 18.84C30.841 19.3093 30.5156 19.6933 30.1103 19.992C29.705 20.28 29.241 20.488 28.7183 20.616C28.1956 20.744 27.657 20.808 27.1023 20.808C27.049 20.808 26.9583 20.808 26.8303 20.808C26.713 20.808 26.585 20.808 26.4463 20.808C26.3183 20.7973 26.1903 20.7867 26.0623 20.776C25.9343 20.7653 25.8436 20.7547 25.7903 20.744V25H24.4623V13.912ZM27.1983 14.824C26.921 14.824 26.6543 14.8293 26.3983 14.84C26.1423 14.8507 25.9396 14.8773 25.7903 14.92V19.56C25.8436 19.5813 25.929 19.5973 26.0463 19.608C26.1636 19.608 26.2863 19.6133 26.4143 19.624C26.5423 19.624 26.665 19.624 26.7823 19.624C26.8996 19.624 26.985 19.624 27.0383 19.624C27.401 19.624 27.7583 19.592 28.1103 19.528C28.473 19.4533 28.7983 19.3253 29.0863 19.144C29.3743 18.9627 29.6036 18.7067 29.7743 18.376C29.9556 18.0453 30.0463 17.624 30.0463 17.112C30.0463 16.6747 29.961 16.312 29.7903 16.024C29.6303 15.7253 29.4116 15.4907 29.1343 15.32C28.8676 15.1387 28.5636 15.0107 28.2223 14.936C27.881 14.8613 27.5396 14.824 27.1983 14.824ZM33.3998 13.8H39.4958V14.984H34.7278V18.648H39.0958V19.832H34.7278V23.816H39.5758V25H33.3998V13.8ZM48.8259 17.416L48.9219 16.136H48.8579L48.1699 17.448L42.7619 25H41.9779V13.8H43.3059V21.48L43.1939 22.744H43.2579L43.9619 21.432L49.3699 13.8H50.1539V25H48.8259V17.416ZM44.7459 11.08C44.7886 11.4747 44.9379 11.7787 45.1939 11.992C45.4499 12.2053 45.7912 12.312 46.2179 12.312C46.6446 12.312 46.9806 12.2053 47.2259 11.992C47.4819 11.7787 47.6366 11.48 47.6899 11.096L48.8259 11.368C48.7086 11.944 48.4366 12.4027 48.0099 12.744C47.5939 13.0747 46.9912 13.24 46.2019 13.24C45.4446 13.24 44.8206 13.096 44.3299 12.808C43.8499 12.5093 43.5672 12.04 43.4819 11.4L44.7459 11.08ZM60.1005 14.984H56.6125V25H55.2845V14.984H51.7965V13.8H60.1005V14.984ZM68.5915 17.416L68.6875 16.136H68.6235L67.9355 17.448L62.5275 25H61.7435V13.8H63.0715V21.48L62.9595 22.744H63.0235L63.7275 21.432L69.1355 13.8H69.9195V25H68.5915V17.416ZM79.3382 19.864H73.9622V25H72.6342V13.8H73.9622V18.68H79.3382V13.8H80.6662V25H79.3382V19.864ZM89.3842 14.984H84.7122V25H83.3842V13.8H89.3842V14.984ZM90.5583 17.816C90.5583 17.528 90.6383 17.304 90.7983 17.144C90.969 16.9733 91.193 16.888 91.4703 16.888C91.7583 16.888 91.9876 16.9733 92.1583 17.144C92.329 17.304 92.4143 17.528 92.4143 17.816C92.4143 18.0933 92.329 18.3173 92.1583 18.488C91.9876 18.6587 91.7583 18.744 91.4703 18.744C91.193 18.744 90.969 18.6587 90.7983 18.488C90.6383 18.3173 90.5583 18.0933 90.5583 17.816ZM90.5583 24.264C90.5583 23.976 90.6383 23.752 90.7983 23.592C90.969 23.4213 91.193 23.336 91.4703 23.336C91.7583 23.336 91.9876 23.4213 92.1583 23.592C92.329 23.752 92.4143 23.976 92.4143 24.264C92.4143 24.5413 92.329 24.7653 92.1583 24.936C91.9876 25.1067 91.7583 25.192 91.4703 25.192C91.193 25.192 90.969 25.1067 90.7983 24.936C90.6383 24.7653 90.5583 24.5413 90.5583 24.264ZM104.74 21.624C104.74 22.1147 104.665 22.5787 104.516 23.016C104.367 23.4427 104.148 23.8213 103.86 24.152C103.572 24.472 103.215 24.728 102.788 24.92C102.361 25.1013 101.876 25.192 101.332 25.192C100.799 25.192 100.319 25.1067 99.8919 24.936C99.4653 24.7653 99.0973 24.5147 98.7879 24.184C98.4786 23.8427 98.2386 23.4267 98.0679 22.936C97.9079 22.4453 97.8279 21.88 97.8279 21.24C97.8279 20.184 97.9613 19.2133 98.2279 18.328C98.5053 17.432 98.8839 16.6533 99.3639 15.992C99.8439 15.3307 100.409 14.7973 101.06 14.392C101.721 13.976 102.436 13.7147 103.204 13.608L103.476 14.632C102.879 14.7387 102.335 14.9413 101.844 15.24C101.353 15.5387 100.921 15.9067 100.548 16.344C100.185 16.7813 99.8866 17.272 99.6519 17.816C99.4173 18.36 99.2573 18.92 99.1719 19.496C99.3426 19.208 99.6306 18.9467 100.036 18.712C100.441 18.4667 100.937 18.344 101.524 18.344C102.527 18.344 103.311 18.632 103.876 19.208C104.452 19.784 104.74 20.5893 104.74 21.624ZM103.412 21.752C103.412 20.9947 103.236 20.424 102.884 20.04C102.532 19.656 101.988 19.464 101.252 19.464C100.729 19.464 100.276 19.592 99.8919 19.848C99.5186 20.104 99.2573 20.392 99.1079 20.712C99.0866 20.8613 99.0759 20.984 99.0759 21.08C99.0759 21.176 99.0759 21.2827 99.0759 21.4C99.0759 21.7307 99.1186 22.056 99.2039 22.376C99.2999 22.696 99.4439 22.984 99.6359 23.24C99.8279 23.4853 100.063 23.688 100.34 23.848C100.628 23.9973 100.964 24.072 101.348 24.072C101.657 24.072 101.935 24.0133 102.18 23.896C102.436 23.7787 102.655 23.6187 102.836 23.416C103.017 23.2133 103.156 22.968 103.252 22.68C103.359 22.392 103.412 22.0827 103.412 21.752ZM106.371 24.312C106.371 24.056 106.456 23.848 106.627 23.688C106.797 23.528 107.016 23.448 107.283 23.448C107.613 23.448 107.88 23.5653 108.083 23.8C108.296 24.0347 108.403 24.376 108.403 24.824C108.403 25.208 108.349 25.544 108.243 25.832C108.136 26.12 107.997 26.3653 107.827 26.568C107.656 26.7813 107.469 26.952 107.267 27.08C107.064 27.2187 106.861 27.32 106.659 27.384L106.259 26.76C106.643 26.6107 106.925 26.376 107.107 26.056C107.299 25.7467 107.395 25.432 107.395 25.112C107.299 25.144 107.208 25.16 107.123 25.16C106.909 25.16 106.728 25.0907 106.579 24.952C106.44 24.8027 106.371 24.5893 106.371 24.312ZM110.012 17.192C110.012 16.68 110.087 16.2053 110.236 15.768C110.386 15.3307 110.604 14.952 110.892 14.632C111.18 14.312 111.538 14.0613 111.964 13.88C112.402 13.6987 112.908 13.608 113.484 13.608C114.572 13.608 115.42 13.96 116.028 14.664C116.636 15.368 116.94 16.36 116.94 17.64C116.94 18.8453 116.802 19.9013 116.524 20.808C116.258 21.704 115.884 22.4613 115.404 23.08C114.924 23.6987 114.354 24.184 113.692 24.536C113.042 24.8773 112.332 25.096 111.564 25.192L111.276 24.168C111.895 24.072 112.45 23.8907 112.94 23.624C113.442 23.3573 113.868 23.0213 114.22 22.616C114.583 22.2107 114.876 21.752 115.1 21.24C115.324 20.7173 115.479 20.152 115.564 19.544C115.276 19.8853 114.956 20.1253 114.604 20.264C114.263 20.392 113.81 20.456 113.244 20.456C112.807 20.456 112.391 20.3867 111.996 20.248C111.612 20.0987 111.271 19.8853 110.972 19.608C110.674 19.3307 110.439 18.9893 110.268 18.584C110.098 18.1787 110.012 17.7147 110.012 17.192ZM111.34 17.064C111.34 17.8213 111.538 18.392 111.932 18.776C112.338 19.1493 112.866 19.336 113.516 19.336C114.039 19.336 114.487 19.2507 114.86 19.08C115.234 18.9093 115.5 18.6853 115.66 18.408C115.682 18.2693 115.692 18.1467 115.692 18.04C115.692 17.9333 115.692 17.8213 115.692 17.704C115.692 17.32 115.644 16.952 115.548 16.6C115.463 16.2373 115.33 15.9173 115.148 15.64C114.967 15.352 114.727 15.128 114.428 14.968C114.14 14.808 113.799 14.728 113.404 14.728C112.754 14.728 112.247 14.936 111.884 15.352C111.522 15.7573 111.34 16.328 111.34 17.064Z" fill="#333333"/>
</svg>
