<svg width="140" height="37" viewBox="0 0 140 37" fill="none" xmlns="http://www.w3.org/2000/svg">
<rect width="140" height="37" rx="4" fill="#F2F2F2"/>
<path d="M24.4622 13.912C24.8675 13.816 25.3048 13.752 25.7742 13.72C26.2435 13.688 26.7075 13.672 27.1662 13.672C27.6568 13.672 28.1528 13.72 28.6542 13.816C29.1662 13.912 29.6302 14.088 30.0462 14.344C30.4622 14.6 30.7982 14.952 31.0542 15.4C31.3208 15.848 31.4542 16.4187 31.4542 17.112C31.4542 17.7947 31.3315 18.3707 31.0862 18.84C30.8408 19.3093 30.5155 19.6933 30.1102 19.992C29.7048 20.28 29.2408 20.488 28.7182 20.616C28.1955 20.744 27.6568 20.808 27.1022 20.808C27.0488 20.808 26.9582 20.808 26.8302 20.808C26.7128 20.808 26.5848 20.808 26.4462 20.808C26.3182 20.7973 26.1902 20.7867 26.0622 20.776C25.9342 20.7653 25.8435 20.7547 25.7902 20.744V25H24.4622V13.912ZM27.1982 14.824C26.9208 14.824 26.6542 14.8293 26.3982 14.84C26.1422 14.8507 25.9395 14.8773 25.7902 14.92V19.56C25.8435 19.5813 25.9288 19.5973 26.0462 19.608C26.1635 19.608 26.2862 19.6133 26.4142 19.624C26.5422 19.624 26.6648 19.624 26.7822 19.624C26.8995 19.624 26.9848 19.624 27.0382 19.624C27.4008 19.624 27.7582 19.592 28.1102 19.528C28.4728 19.4533 28.7982 19.3253 29.0862 19.144C29.3742 18.9627 29.6035 18.7067 29.7742 18.376C29.9555 18.0453 30.0462 17.624 30.0462 17.112C30.0462 16.6747 29.9608 16.312 29.7902 16.024C29.6302 15.7253 29.4115 15.4907 29.1342 15.32C28.8675 15.1387 28.5635 15.0107 28.2222 14.936C27.8808 14.8613 27.5395 14.824 27.1982 14.824ZM33.3997 13.8H39.4957V14.984H34.7277V18.648H39.0957V19.832H34.7277V23.816H39.5757V25H33.3997V13.8ZM48.8258 17.416L48.9218 16.136H48.8578L48.1698 17.448L42.7618 25H41.9778V13.8H43.3058V21.48L43.1938 22.744H43.2578L43.9618 21.432L49.3698 13.8H50.1538V25H48.8258V17.416ZM44.7458 11.08C44.7885 11.4747 44.9378 11.7787 45.1938 11.992C45.4498 12.2053 45.7911 12.312 46.2178 12.312C46.6445 12.312 46.9805 12.2053 47.2258 11.992C47.4818 11.7787 47.6365 11.48 47.6898 11.096L48.8258 11.368C48.7085 11.944 48.4365 12.4027 48.0098 12.744C47.5938 13.0747 46.9911 13.24 46.2018 13.24C45.4445 13.24 44.8205 13.096 44.3298 12.808C43.8498 12.5093 43.5671 12.04 43.4818 11.4L44.7458 11.08ZM60.1004 14.984H56.6124V25H55.2844V14.984H51.7964V13.8H60.1004V14.984ZM68.5914 17.416L68.6874 16.136H68.6234L67.9354 17.448L62.5274 25H61.7434V13.8H63.0714V21.48L62.9594 22.744H63.0234L63.7274 21.432L69.1354 13.8H69.9194V25H68.5914V17.416ZM79.338 19.864H73.962V25H72.634V13.8H73.962V18.68H79.338V13.8H80.666V25H79.338V19.864ZM89.384 14.984H84.712V25H83.384V13.8H89.384V14.984ZM90.5582 17.816C90.5582 17.528 90.6382 17.304 90.7982 17.144C90.9688 16.9733 91.1928 16.888 91.4702 16.888C91.7582 16.888 91.9875 16.9733 92.1582 17.144C92.3288 17.304 92.4142 17.528 92.4142 17.816C92.4142 18.0933 92.3288 18.3173 92.1582 18.488C91.9875 18.6587 91.7582 18.744 91.4702 18.744C91.1928 18.744 90.9688 18.6587 90.7982 18.488C90.6382 18.3173 90.5582 18.0933 90.5582 17.816ZM90.5582 24.264C90.5582 23.976 90.6382 23.752 90.7982 23.592C90.9688 23.4213 91.1928 23.336 91.4702 23.336C91.7582 23.336 91.9875 23.4213 92.1582 23.592C92.3288 23.752 92.4142 23.976 92.4142 24.264C92.4142 24.5413 92.3288 24.7653 92.1582 24.936C91.9875 25.1067 91.7582 25.192 91.4702 25.192C91.1928 25.192 90.9688 25.1067 90.7982 24.936C90.6382 24.7653 90.5582 24.5413 90.5582 24.264ZM97.6998 17.192C97.6998 16.68 97.7745 16.2053 97.9238 15.768C98.0731 15.3307 98.2918 14.952 98.5798 14.632C98.8678 14.312 99.2251 14.0613 99.6518 13.88C100.089 13.6987 100.596 13.608 101.172 13.608C102.26 13.608 103.108 13.96 103.716 14.664C104.324 15.368 104.628 16.36 104.628 17.64C104.628 18.8453 104.489 19.9013 104.212 20.808C103.945 21.704 103.572 22.4613 103.092 23.08C102.612 23.6987 102.041 24.184 101.38 24.536C100.729 24.8773 100.02 25.096 99.2518 25.192L98.9638 24.168C99.5825 24.072 100.137 23.8907 100.628 23.624C101.129 23.3573 101.556 23.0213 101.908 22.616C102.27 22.2107 102.564 21.752 102.788 21.24C103.012 20.7173 103.166 20.152 103.252 19.544C102.964 19.8853 102.644 20.1253 102.292 20.264C101.95 20.392 101.497 20.456 100.932 20.456C100.494 20.456 100.078 20.3867 99.6838 20.248C99.2998 20.0987 98.9585 19.8853 98.6598 19.608C98.3611 19.3307 98.1265 18.9893 97.9558 18.584C97.7851 18.1787 97.6998 17.7147 97.6998 17.192ZM99.0278 17.064C99.0278 17.8213 99.2251 18.392 99.6198 18.776C100.025 19.1493 100.553 19.336 101.204 19.336C101.726 19.336 102.174 19.2507 102.548 19.08C102.921 18.9093 103.188 18.6853 103.348 18.408C103.369 18.2693 103.38 18.1467 103.38 18.04C103.38 17.9333 103.38 17.8213 103.38 17.704C103.38 17.32 103.332 16.952 103.236 16.6C103.15 16.2373 103.017 15.9173 102.836 15.64C102.654 15.352 102.414 15.128 102.116 14.968C101.828 14.808 101.486 14.728 101.092 14.728C100.441 14.728 99.9345 14.936 99.5718 15.352C99.2091 15.7573 99.0278 16.328 99.0278 17.064ZM106.371 24.312C106.371 24.056 106.456 23.848 106.627 23.688C106.797 23.528 107.016 23.448 107.283 23.448C107.613 23.448 107.88 23.5653 108.083 23.8C108.296 24.0347 108.403 24.376 108.403 24.824C108.403 25.208 108.349 25.544 108.243 25.832C108.136 26.12 107.997 26.3653 107.827 26.568C107.656 26.7813 107.469 26.952 107.267 27.08C107.064 27.2187 106.861 27.32 106.659 27.384L106.259 26.76C106.643 26.6107 106.925 26.376 107.107 26.056C107.299 25.7467 107.395 25.432 107.395 25.112C107.299 25.144 107.208 25.16 107.123 25.16C106.909 25.16 106.728 25.0907 106.579 24.952C106.44 24.8027 106.371 24.5893 106.371 24.312ZM116.316 16.344C116.316 16.9093 116.21 17.4907 115.996 18.088C115.794 18.6747 115.522 19.2667 115.18 19.864C114.85 20.4613 114.476 21.048 114.06 21.624C113.644 22.1893 113.228 22.728 112.812 23.24L112.028 23.928V23.992L113.052 23.816H116.54V25H110.172V24.536C110.407 24.2907 110.69 23.9867 111.02 23.624C111.351 23.2613 111.692 22.8613 112.044 22.424C112.407 21.976 112.759 21.5067 113.1 21.016C113.452 20.5147 113.767 20.008 114.044 19.496C114.332 18.984 114.562 18.4773 114.732 17.976C114.903 17.4747 114.988 17 114.988 16.552C114.988 16.0293 114.839 15.5973 114.54 15.256C114.242 14.904 113.788 14.728 113.18 14.728C112.775 14.728 112.38 14.8133 111.996 14.984C111.612 15.144 111.282 15.3307 111.004 15.544L110.476 14.632C110.85 14.312 111.292 14.0613 111.804 13.88C112.316 13.6987 112.866 13.608 113.452 13.608C113.911 13.608 114.316 13.6773 114.668 13.816C115.02 13.944 115.319 14.1307 115.564 14.376C115.81 14.6213 115.996 14.9147 116.124 15.256C116.252 15.5867 116.316 15.9493 116.316 16.344Z" fill="#333333"/>
</svg>
