<svg width="140" height="37" viewBox="0 0 140 37" fill="none" xmlns="http://www.w3.org/2000/svg">
<rect width="140" height="37" rx="4" fill="#F2F2F2"/>
<path d="M24.4622 13.912C24.8675 13.816 25.3048 13.752 25.7742 13.72C26.2435 13.688 26.7075 13.672 27.1662 13.672C27.6568 13.672 28.1528 13.72 28.6542 13.816C29.1662 13.912 29.6302 14.088 30.0462 14.344C30.4622 14.6 30.7982 14.952 31.0542 15.4C31.3208 15.848 31.4542 16.4187 31.4542 17.112C31.4542 17.7947 31.3315 18.3707 31.0862 18.84C30.8408 19.3093 30.5155 19.6933 30.1102 19.992C29.7048 20.28 29.2408 20.488 28.7182 20.616C28.1955 20.744 27.6568 20.808 27.1022 20.808C27.0488 20.808 26.9582 20.808 26.8302 20.808C26.7128 20.808 26.5848 20.808 26.4462 20.808C26.3182 20.7973 26.1902 20.7867 26.0622 20.776C25.9342 20.7653 25.8435 20.7547 25.7902 20.744V25H24.4622V13.912ZM27.1982 14.824C26.9208 14.824 26.6542 14.8293 26.3982 14.84C26.1422 14.8507 25.9395 14.8773 25.7902 14.92V19.56C25.8435 19.5813 25.9288 19.5973 26.0462 19.608C26.1635 19.608 26.2862 19.6133 26.4142 19.624C26.5422 19.624 26.6648 19.624 26.7822 19.624C26.8995 19.624 26.9848 19.624 27.0382 19.624C27.4008 19.624 27.7582 19.592 28.1102 19.528C28.4728 19.4533 28.7982 19.3253 29.0862 19.144C29.3742 18.9627 29.6035 18.7067 29.7742 18.376C29.9555 18.0453 30.0462 17.624 30.0462 17.112C30.0462 16.6747 29.9608 16.312 29.7902 16.024C29.6302 15.7253 29.4115 15.4907 29.1342 15.32C28.8675 15.1387 28.5635 15.0107 28.2222 14.936C27.8808 14.8613 27.5395 14.824 27.1982 14.824ZM33.3997 13.8H39.4957V14.984H34.7277V18.648H39.0957V19.832H34.7277V23.816H39.5757V25H33.3997V13.8ZM48.8258 17.416L48.9218 16.136H48.8578L48.1698 17.448L42.7618 25H41.9778V13.8H43.3058V21.48L43.1938 22.744H43.2578L43.9618 21.432L49.3698 13.8H50.1538V25H48.8258V17.416ZM44.7458 11.08C44.7885 11.4747 44.9378 11.7787 45.1938 11.992C45.4498 12.2053 45.7911 12.312 46.2178 12.312C46.6445 12.312 46.9805 12.2053 47.2258 11.992C47.4818 11.7787 47.6365 11.48 47.6898 11.096L48.8258 11.368C48.7085 11.944 48.4365 12.4027 48.0098 12.744C47.5938 13.0747 46.9911 13.24 46.2018 13.24C45.4445 13.24 44.8205 13.096 44.3298 12.808C43.8498 12.5093 43.5671 12.04 43.4818 11.4L44.7458 11.08ZM60.1004 14.984H56.6124V25H55.2844V14.984H51.7964V13.8H60.1004V14.984ZM68.5914 17.416L68.6874 16.136H68.6234L67.9354 17.448L62.5274 25H61.7434V13.8H63.0714V21.48L62.9594 22.744H63.0234L63.7274 21.432L69.1354 13.8H69.9194V25H68.5914V17.416ZM79.338 19.864H73.962V25H72.634V13.8H73.962V18.68H79.338V13.8H80.666V25H79.338V19.864ZM89.384 14.984H84.712V25H83.384V13.8H89.384V14.984ZM90.5582 17.816C90.5582 17.528 90.6382 17.304 90.7982 17.144C90.9688 16.9733 91.1928 16.888 91.4702 16.888C91.7582 16.888 91.9875 16.9733 92.1582 17.144C92.3288 17.304 92.4142 17.528 92.4142 17.816C92.4142 18.0933 92.3288 18.3173 92.1582 18.488C91.9875 18.6587 91.7582 18.744 91.4702 18.744C91.1928 18.744 90.9688 18.6587 90.7982 18.488C90.6382 18.3173 90.5582 18.0933 90.5582 17.816ZM90.5582 24.264C90.5582 23.976 90.6382 23.752 90.7982 23.592C90.9688 23.4213 91.1928 23.336 91.4702 23.336C91.7582 23.336 91.9875 23.4213 92.1582 23.592C92.3288 23.752 92.4142 23.976 92.4142 24.264C92.4142 24.5413 92.3288 24.7653 92.1582 24.936C91.9875 25.1067 91.7582 25.192 91.4702 25.192C91.1928 25.192 90.9688 25.1067 90.7982 24.936C90.6382 24.7653 90.5582 24.5413 90.5582 24.264ZM97.9558 22.328C97.9558 21.656 98.1318 21.0747 98.4838 20.584C98.8358 20.0827 99.3851 19.6293 100.132 19.224C99.8651 19.064 99.6145 18.8987 99.3798 18.728C99.1558 18.5467 98.9531 18.344 98.7718 18.12C98.6011 17.896 98.4625 17.6453 98.3558 17.368C98.2598 17.0907 98.2118 16.7707 98.2118 16.408C98.2118 15.992 98.2811 15.6133 98.4198 15.272C98.5691 14.9307 98.7771 14.6373 99.0438 14.392C99.3211 14.1467 99.6465 13.9547 100.02 13.816C100.404 13.6773 100.836 13.608 101.316 13.608C101.764 13.608 102.169 13.672 102.532 13.8C102.894 13.928 103.198 14.104 103.444 14.328C103.7 14.552 103.897 14.8187 104.036 15.128C104.174 15.4373 104.244 15.7787 104.244 16.152C104.244 16.76 104.105 17.2987 103.828 17.768C103.55 18.2267 103.092 18.68 102.452 19.128C102.729 19.288 102.99 19.464 103.236 19.656C103.492 19.848 103.71 20.0613 103.892 20.296C104.084 20.5307 104.233 20.7973 104.34 21.096C104.446 21.384 104.5 21.7147 104.5 22.088C104.5 22.5467 104.425 22.968 104.276 23.352C104.126 23.7253 103.908 24.0507 103.62 24.328C103.332 24.5947 102.98 24.808 102.564 24.968C102.148 25.1173 101.673 25.192 101.14 25.192C100.628 25.192 100.174 25.1173 99.7798 24.968C99.3851 24.8187 99.0491 24.616 98.7718 24.36C98.5051 24.104 98.3025 23.8053 98.1638 23.464C98.0251 23.112 97.9558 22.7333 97.9558 22.328ZM103.252 22.168C103.252 21.848 103.188 21.5707 103.06 21.336C102.932 21.0907 102.761 20.872 102.548 20.68C102.345 20.4773 102.11 20.296 101.844 20.136C101.577 19.976 101.3 19.8213 101.012 19.672C100.361 20.0347 99.8971 20.44 99.6198 20.888C99.3425 21.336 99.2038 21.7627 99.2038 22.168C99.2038 22.424 99.2465 22.6693 99.3318 22.904C99.4171 23.1387 99.5451 23.3413 99.7158 23.512C99.8865 23.6827 100.094 23.8213 100.34 23.928C100.596 24.024 100.889 24.072 101.22 24.072C101.486 24.072 101.742 24.0347 101.988 23.96C102.233 23.8747 102.446 23.7573 102.628 23.608C102.82 23.448 102.969 23.2507 103.076 23.016C103.193 22.7707 103.252 22.488 103.252 22.168ZM99.4598 16.376C99.4598 16.6747 99.5185 16.9413 99.6358 17.176C99.7531 17.4 99.9078 17.6027 100.1 17.784C100.302 17.9653 100.532 18.136 100.788 18.296C101.044 18.4453 101.31 18.5893 101.588 18.728C102.068 18.3547 102.42 17.9867 102.644 17.624C102.878 17.2613 102.996 16.8613 102.996 16.424C102.996 15.88 102.825 15.464 102.484 15.176C102.153 14.8773 101.753 14.728 101.284 14.728C100.996 14.728 100.74 14.776 100.516 14.872C100.292 14.968 100.1 15.0907 99.9398 15.24C99.7798 15.3893 99.6571 15.5653 99.5718 15.768C99.4971 15.96 99.4598 16.1627 99.4598 16.376ZM106.371 24.312C106.371 24.056 106.456 23.848 106.627 23.688C106.797 23.528 107.016 23.448 107.283 23.448C107.613 23.448 107.88 23.5653 108.083 23.8C108.296 24.0347 108.403 24.376 108.403 24.824C108.403 25.208 108.349 25.544 108.243 25.832C108.136 26.12 107.997 26.3653 107.827 26.568C107.656 26.7813 107.469 26.952 107.267 27.08C107.064 27.2187 106.861 27.32 106.659 27.384L106.259 26.76C106.643 26.6107 106.925 26.376 107.107 26.056C107.299 25.7467 107.395 25.432 107.395 25.112C107.299 25.144 107.208 25.16 107.123 25.16C106.909 25.16 106.728 25.0907 106.579 24.952C106.44 24.8027 106.371 24.5893 106.371 24.312ZM112.588 24.072C113.324 24.072 113.932 23.8587 114.412 23.432C114.892 23.0053 115.132 22.3867 115.132 21.576C115.132 20.7973 114.892 20.216 114.412 19.832C113.943 19.448 113.292 19.256 112.46 19.256L111.116 19.336V13.8H116.108V14.984H112.316V18.168L113.004 18.136C114.06 18.1467 114.892 18.44 115.5 19.016C116.108 19.592 116.412 20.4187 116.412 21.496C116.412 22.0933 116.311 22.6267 116.108 23.096C115.906 23.5547 115.628 23.9387 115.276 24.248C114.935 24.5573 114.53 24.792 114.06 24.952C113.591 25.112 113.09 25.192 112.556 25.192C112.076 25.192 111.671 25.1653 111.34 25.112C111.01 25.0587 110.7 24.9787 110.412 24.872L110.748 23.784C110.994 23.88 111.255 23.9547 111.532 24.008C111.82 24.0507 112.172 24.072 112.588 24.072Z" fill="#333333"/>
</svg>
