<svg width="140" height="37" viewBox="0 0 140 37" fill="none" xmlns="http://www.w3.org/2000/svg">
<rect width="140" height="37" rx="4" fill="#F2F2F2"/>
<path d="M24.4622 13.912C24.8675 13.816 25.3048 13.752 25.7742 13.72C26.2435 13.688 26.7075 13.672 27.1662 13.672C27.6568 13.672 28.1528 13.72 28.6542 13.816C29.1662 13.912 29.6302 14.088 30.0462 14.344C30.4622 14.6 30.7982 14.952 31.0542 15.4C31.3208 15.848 31.4542 16.4187 31.4542 17.112C31.4542 17.7947 31.3315 18.3707 31.0862 18.84C30.8408 19.3093 30.5155 19.6933 30.1102 19.992C29.7048 20.28 29.2408 20.488 28.7182 20.616C28.1955 20.744 27.6568 20.808 27.1022 20.808C27.0488 20.808 26.9582 20.808 26.8302 20.808C26.7128 20.808 26.5848 20.808 26.4462 20.808C26.3182 20.7973 26.1902 20.7867 26.0622 20.776C25.9342 20.7653 25.8435 20.7547 25.7902 20.744V25H24.4622V13.912ZM27.1982 14.824C26.9208 14.824 26.6542 14.8293 26.3982 14.84C26.1422 14.8507 25.9395 14.8773 25.7902 14.92V19.56C25.8435 19.5813 25.9288 19.5973 26.0462 19.608C26.1635 19.608 26.2862 19.6133 26.4142 19.624C26.5422 19.624 26.6648 19.624 26.7822 19.624C26.8995 19.624 26.9848 19.624 27.0382 19.624C27.4008 19.624 27.7582 19.592 28.1102 19.528C28.4728 19.4533 28.7982 19.3253 29.0862 19.144C29.3742 18.9627 29.6035 18.7067 29.7742 18.376C29.9555 18.0453 30.0462 17.624 30.0462 17.112C30.0462 16.6747 29.9608 16.312 29.7902 16.024C29.6302 15.7253 29.4115 15.4907 29.1342 15.32C28.8675 15.1387 28.5635 15.0107 28.2222 14.936C27.8808 14.8613 27.5395 14.824 27.1982 14.824ZM33.3997 13.8H39.4957V14.984H34.7277V18.648H39.0957V19.832H34.7277V23.816H39.5757V25H33.3997V13.8ZM48.8258 17.416L48.9218 16.136H48.8578L48.1698 17.448L42.7618 25H41.9778V13.8H43.3058V21.48L43.1938 22.744H43.2578L43.9618 21.432L49.3698 13.8H50.1538V25H48.8258V17.416ZM44.7458 11.08C44.7885 11.4747 44.9378 11.7787 45.1938 11.992C45.4498 12.2053 45.7911 12.312 46.2178 12.312C46.6445 12.312 46.9805 12.2053 47.2258 11.992C47.4818 11.7787 47.6365 11.48 47.6898 11.096L48.8258 11.368C48.7085 11.944 48.4365 12.4027 48.0098 12.744C47.5938 13.0747 46.9911 13.24 46.2018 13.24C45.4445 13.24 44.8205 13.096 44.3298 12.808C43.8498 12.5093 43.5671 12.04 43.4818 11.4L44.7458 11.08ZM60.1004 14.984H56.6124V25H55.2844V14.984H51.7964V13.8H60.1004V14.984ZM68.5914 17.416L68.6874 16.136H68.6234L67.9354 17.448L62.5274 25H61.7434V13.8H63.0714V21.48L62.9594 22.744H63.0234L63.7274 21.432L69.1354 13.8H69.9194V25H68.5914V17.416ZM79.338 19.864H73.962V25H72.634V13.8H73.962V18.68H79.338V13.8H80.666V25H79.338V19.864ZM89.384 14.984H84.712V25H83.384V13.8H89.384V14.984ZM90.5582 17.816C90.5582 17.528 90.6382 17.304 90.7982 17.144C90.9688 16.9733 91.1928 16.888 91.4702 16.888C91.7582 16.888 91.9875 16.9733 92.1582 17.144C92.3288 17.304 92.4142 17.528 92.4142 17.816C92.4142 18.0933 92.3288 18.3173 92.1582 18.488C91.9875 18.6587 91.7582 18.744 91.4702 18.744C91.1928 18.744 90.9688 18.6587 90.7982 18.488C90.6382 18.3173 90.5582 18.0933 90.5582 17.816ZM90.5582 24.264C90.5582 23.976 90.6382 23.752 90.7982 23.592C90.9688 23.4213 91.1928 23.336 91.4702 23.336C91.7582 23.336 91.9875 23.4213 92.1582 23.592C92.3288 23.752 92.4142 23.976 92.4142 24.264C92.4142 24.5413 92.3288 24.7653 92.1582 24.936C91.9875 25.1067 91.7582 25.192 91.4702 25.192C91.1928 25.192 90.9688 25.1067 90.7982 24.936C90.6382 24.7653 90.5582 24.5413 90.5582 24.264ZM100.276 24.072C101.012 24.072 101.62 23.8587 102.1 23.432C102.58 23.0053 102.82 22.3867 102.82 21.576C102.82 20.7973 102.58 20.216 102.1 19.832C101.63 19.448 100.98 19.256 100.148 19.256L98.8038 19.336V13.8H103.796V14.984H100.004V18.168L100.692 18.136C101.748 18.1467 102.58 18.44 103.188 19.016C103.796 19.592 104.1 20.4187 104.1 21.496C104.1 22.0933 103.998 22.6267 103.796 23.096C103.593 23.5547 103.316 23.9387 102.964 24.248C102.622 24.5573 102.217 24.792 101.748 24.952C101.278 25.112 100.777 25.192 100.244 25.192C99.7638 25.192 99.3585 25.1653 99.0278 25.112C98.6971 25.0587 98.3878 24.9787 98.0998 24.872L98.4358 23.784C98.6811 23.88 98.9425 23.9547 99.2198 24.008C99.5078 24.0507 99.8598 24.072 100.276 24.072ZM106.371 24.312C106.371 24.056 106.456 23.848 106.627 23.688C106.797 23.528 107.016 23.448 107.283 23.448C107.613 23.448 107.88 23.5653 108.083 23.8C108.296 24.0347 108.403 24.376 108.403 24.824C108.403 25.208 108.349 25.544 108.243 25.832C108.136 26.12 107.997 26.3653 107.827 26.568C107.656 26.7813 107.469 26.952 107.267 27.08C107.064 27.2187 106.861 27.32 106.659 27.384L106.259 26.76C106.643 26.6107 106.925 26.376 107.107 26.056C107.299 25.7467 107.395 25.432 107.395 25.112C107.299 25.144 107.208 25.16 107.123 25.16C106.909 25.16 106.728 25.0907 106.579 24.952C106.44 24.8027 106.371 24.5893 106.371 24.312ZM109.868 19.4C109.868 17.48 110.178 16.0347 110.796 15.064C111.426 14.0933 112.338 13.608 113.532 13.608C114.823 13.608 115.756 14.088 116.332 15.048C116.919 15.9973 117.212 17.448 117.212 19.4C117.212 21.32 116.898 22.7653 116.268 23.736C115.65 24.7067 114.738 25.192 113.532 25.192C112.263 25.192 111.335 24.6853 110.748 23.672C110.162 22.6587 109.868 21.2347 109.868 19.4ZM111.196 19.4C111.196 20.0933 111.239 20.728 111.324 21.304C111.42 21.8693 111.564 22.36 111.756 22.776C111.948 23.1813 112.188 23.5013 112.476 23.736C112.775 23.96 113.127 24.072 113.532 24.072C114.343 24.072 114.935 23.6987 115.308 22.952C115.692 22.1947 115.884 21.0107 115.884 19.4C115.884 18.7173 115.842 18.088 115.756 17.512C115.682 16.936 115.548 16.44 115.356 16.024C115.175 15.608 114.935 15.288 114.636 15.064C114.338 14.84 113.97 14.728 113.532 14.728C112.732 14.728 112.14 15.1067 111.756 15.864C111.383 16.6213 111.196 17.8 111.196 19.4Z" fill="#333333"/>
</svg>
